<?xml version="1.0" standalone="no"?>
<!DOCTYPE svg PUBLIC "-//W3C//DTD SVG 20010904//EN"
 "http://www.w3.org/TR/2001/REC-SVG-20010904/DTD/svg10.dtd">
<svg version="1.0" xmlns="http://www.w3.org/2000/svg"
 width="2104.000000pt" height="2104.000000pt" viewBox="0 0 2104.000000 2104.000000"
 preserveAspectRatio="xMidYMid meet">
<metadata>
Created by potrace 1.14, written by Peter Selinger 2001-2017
</metadata>
<g transform="translate(0.000000,2104.000000) scale(0.100000,-0.100000)"
fill="#000000" stroke="none">
<path d="M3987 11823 c-3 -2 -11 -6 -19 -8 -39 -9 -58 -18 -58 -28 0 -6 -3 -8
-6 -4 -4 3 -25 -6 -48 -22 -22 -15 -47 -26 -55 -23 -8 3 -11 0 -7 -6 3 -6 -4
-14 -16 -18 -13 -4 -25 -10 -28 -14 -3 -4 -30 -20 -60 -37 -93 -51 -184 -105
-200 -119 -8 -7 -19 -13 -25 -13 -5 -1 -18 -8 -27 -16 -10 -8 -18 -12 -18 -9
0 3 -13 -4 -29 -15 -16 -12 -34 -21 -40 -21 -6 0 -11 -4 -11 -9 0 -5 -11 -12
-25 -15 -14 -4 -25 -11 -25 -16 0 -6 -7 -10 -15 -10 -8 0 -15 -4 -15 -10 0 -5
-6 -7 -14 -4 -7 3 -16 -2 -20 -11 -3 -9 -10 -13 -16 -10 -6 3 -13 -1 -16 -9
-3 -9 -12 -16 -20 -16 -8 0 -23 -8 -34 -17 -11 -10 -22 -16 -24 -13 -2 3 -12
-2 -22 -11 -11 -9 -39 -27 -64 -40 -25 -13 -51 -28 -58 -34 -26 -20 -73 -65
-67 -65 3 0 1 -10 -6 -21 -6 -12 -11 -36 -11 -55 0 -38 31 -114 47 -114 6 0
17 -9 25 -19 7 -11 17 -18 22 -15 4 3 8 0 8 -5 0 -6 3 -10 8 -9 4 1 26 -10 49
-25 24 -15 47 -27 52 -27 5 0 14 -7 21 -15 7 -8 16 -12 21 -9 5 3 9 0 9 -5 0
-6 7 -11 15 -11 8 0 15 -4 15 -10 0 -5 5 -10 10 -10 6 0 28 -11 50 -25 22 -14
40 -22 40 -18 0 5 5 1 10 -7 5 -8 14 -15 20 -15 6 0 14 -4 18 -10 4 -5 24 -19
45 -29 20 -11 37 -23 37 -27 0 -5 6 -6 13 -3 8 3 20 -2 27 -11 7 -8 19 -15 26
-15 8 0 14 -4 14 -8 0 -10 50 -37 63 -34 4 1 7 -3 7 -8 0 -6 7 -10 15 -10 8 0
15 -4 15 -10 0 -5 7 -10 15 -10 8 0 15 -4 15 -10 0 -5 6 -7 14 -4 7 3 16 -2
19 -10 4 -9 13 -16 22 -16 8 0 15 -5 15 -11 0 -5 5 -7 10 -4 6 3 10 2 10 -3 0
-5 8 -12 18 -15 18 -6 93 -48 102 -57 3 -3 26 -17 53 -30 26 -14 47 -28 47
-32 0 -5 9 -8 19 -8 11 0 21 -5 23 -11 5 -14 58 -21 58 -8 0 6 14 15 30 20 17
6 30 15 30 20 0 5 7 9 15 9 8 0 15 5 15 12 0 6 3 9 6 5 4 -3 25 6 48 21 22 15
55 34 71 42 17 8 36 21 43 28 7 6 20 12 28 12 8 0 14 5 14 10 0 6 6 10 14 10
7 0 19 7 26 15 7 8 16 12 21 9 5 -3 9 -1 9 4 0 6 14 15 30 21 17 5 30 15 30
22 0 7 3 10 6 6 4 -3 23 5 43 18 19 14 41 25 48 25 7 0 13 4 13 8 0 4 20 18
45 30 25 12 45 26 45 32 0 5 3 9 8 8 10 -2 52 18 87 41 17 12 32 21 35 21 3 0
5 -168 5 -374 0 -206 -3 -372 -7 -370 -5 3 -8 1 -8 -5 0 -6 -16 -18 -35 -27
-19 -9 -35 -21 -35 -26 0 -5 -4 -7 -10 -3 -5 3 -18 -3 -30 -15 -11 -11 -20
-17 -20 -14 0 3 -13 -4 -29 -15 -16 -12 -33 -21 -38 -21 -5 0 -15 -6 -22 -12
-6 -7 -15 -13 -19 -13 -4 -1 -32 -16 -62 -35 -30 -19 -58 -34 -62 -32 -5 1 -8
-2 -8 -8 0 -5 -6 -10 -14 -10 -8 0 -16 -4 -18 -9 -1 -5 -10 -11 -18 -13 -14
-3 -21 -7 -55 -36 -8 -7 -15 -10 -15 -7 0 4 -13 -3 -30 -15 -16 -12 -30 -19
-30 -16 0 3 -9 -3 -21 -15 -11 -11 -27 -18 -35 -15 -9 3 -12 1 -9 -4 4 -6 -7
-15 -24 -21 -17 -6 -31 -15 -31 -21 0 -5 -4 -6 -10 -3 -5 3 -10 1 -10 -4 0 -6
-6 -11 -14 -11 -7 0 -19 -7 -26 -15 -7 -8 -16 -12 -21 -9 -5 3 -9 0 -9 -5 0
-17 -19 -13 -51 10 -16 11 -29 17 -29 14 0 -4 -7 1 -16 9 -8 9 -21 16 -29 16
-7 0 -15 4 -17 8 -3 8 -89 59 -145 86 -13 6 -23 15 -23 19 0 5 -4 5 -10 2 -5
-3 -10 -1 -10 4 0 6 -7 11 -15 11 -7 0 -18 7 -23 16 -5 9 -12 15 -15 15 -18
-2 -25 0 -43 17 -21 20 -26 22 -49 22 -8 0 -15 7 -15 16 0 8 -4 13 -9 9 -5 -3
-17 2 -25 11 -9 8 -16 12 -16 7 0 -4 -4 -3 -8 3 -4 5 -24 18 -44 27 -20 10
-43 23 -50 30 -7 7 -34 23 -60 37 -27 14 -48 29 -48 33 0 5 -4 5 -10 2 -5 -3
-10 -1 -10 4 0 6 -9 11 -20 11 -11 0 -20 6 -21 13 0 6 -1 66 -2 132 -1 66 -6
126 -11 134 -6 10 -6 12 3 6 9 -5 9 -1 -1 14 -7 12 -16 21 -20 21 -5 0 -8 9
-8 21 0 11 -4 17 -10 14 -5 -3 -10 -1 -10 4 0 6 -6 11 -14 11 -8 0 -16 5 -18
10 -4 13 -128 21 -128 9 0 -5 -7 -9 -15 -9 -8 0 -15 -5 -15 -12 0 -6 -3 -8 -6
-5 -8 7 -44 -36 -44 -52 0 -6 -4 -11 -8 -11 -10 0 -11 -5 -13 -80 -1 -30 -7
-61 -13 -69 -8 -10 -8 -13 0 -8 7 4 11 -16 11 -63 -1 -46 -4 -67 -11 -63 -7 5
-7 2 0 -8 6 -8 11 -41 12 -73 0 -32 4 -62 9 -65 4 -3 9 -13 11 -21 1 -8 15
-26 30 -39 15 -14 26 -27 25 -31 -1 -3 8 -7 19 -7 12 -1 24 -6 27 -10 3 -5 18
-14 34 -20 15 -7 27 -17 27 -23 0 -6 4 -9 9 -5 5 3 15 -1 23 -8 7 -7 29 -21
48 -31 76 -39 90 -47 90 -57 0 -5 3 -8 8 -8 12 3 72 -25 72 -33 0 -4 7 -8 15
-8 8 0 15 -3 15 -8 0 -8 49 -32 64 -31 5 1 13 -6 18 -15 5 -9 13 -14 18 -11 4
3 11 -2 14 -11 3 -8 10 -12 16 -9 5 3 10 2 10 -3 0 -5 8 -12 18 -16 18 -6 42
-20 81 -48 13 -10 27 -15 32 -12 5 3 9 0 9 -5 0 -6 7 -11 15 -11 8 0 15 -4 15
-10 0 -5 10 -10 22 -10 12 0 18 -3 15 -6 -4 -4 12 -17 36 -29 54 -27 91 -49
97 -56 7 -8 44 -22 53 -21 4 1 7 -5 7 -14 0 -8 5 -12 10 -9 6 3 10 1 10 -6 0
-7 3 -10 6 -6 4 3 18 0 33 -7 14 -7 32 -11 40 -8 10 3 11 0 5 -9 -7 -12 -5
-12 9 0 9 7 17 10 17 6 0 -4 7 -2 15 5 8 7 15 9 15 6 0 -8 98 43 118 62 7 7
18 10 23 7 5 -4 9 -2 9 4 0 6 17 18 38 28 20 9 43 23 50 29 6 7 21 16 32 19
11 3 20 11 20 16 0 6 4 8 9 5 5 -3 14 1 21 9 7 8 16 12 21 9 5 -3 9 0 9 5 0 6
7 11 15 11 8 0 15 5 15 11 0 5 5 7 10 4 6 -3 13 1 16 9 3 9 10 13 15 10 5 -3
9 0 9 6 0 6 4 9 9 6 5 -3 14 1 21 9 7 8 18 15 25 15 7 0 16 7 19 16 3 8 10 13
15 10 5 -3 20 3 34 14 14 11 30 20 36 20 5 0 15 8 20 18 6 9 11 13 11 8 0 -5
7 -3 15 4 8 7 15 9 15 4 0 -5 4 -4 8 2 4 6 41 30 82 54 41 24 77 47 78 52 2 4
7 6 12 3 4 -3 13 2 20 10 7 8 19 15 26 15 8 0 14 4 14 9 0 5 12 14 28 20 15 6
50 24 77 41 28 16 59 34 70 39 11 5 15 10 9 10 -12 1 -13 59 -2 77 4 6 4 14 0
18 -11 12 -10 66 2 66 8 0 8 3 0 8 -5 4 -10 25 -10 47 0 22 5 43 10 47 8 5 8
8 0 8 -12 0 -13 48 -2 66 4 6 4 14 0 18 -11 12 -9 116 3 116 6 0 6 3 -1 8 -12
8 -13 61 -2 78 4 6 4 14 0 18 -11 12 -10 66 2 66 8 0 8 3 0 8 -5 4 -10 25 -10
47 0 22 5 43 10 47 8 5 8 8 0 8 -12 0 -13 48 -2 66 4 6 4 14 0 18 -12 12 -10
146 2 146 8 0 8 2 0 8 -11 8 -13 51 -2 68 4 6 4 14 0 18 -11 12 -11 77 1 69 6
-4 7 -1 1 8 -4 8 -9 33 -10 57 -1 23 -7 48 -13 56 -6 7 -8 16 -4 19 3 4 1 7
-6 7 -7 0 -9 5 -6 10 3 6 2 10 -3 10 -5 0 -21 11 -37 24 -15 13 -35 23 -44 21
-9 -1 -20 0 -26 4 -17 9 -35 10 -40 1 -3 -5 -12 -7 -20 -3 -8 3 -15 0 -15 -6
0 -6 -3 -10 -7 -9 -5 1 -18 -3 -30 -10 -13 -7 -23 -10 -23 -7 0 3 -9 -4 -20
-15 -11 -11 -27 -20 -35 -20 -8 0 -15 -3 -15 -8 0 -4 -13 -13 -29 -20 -16 -7
-39 -21 -51 -32 -12 -11 -27 -17 -31 -14 -5 3 -9 0 -9 -5 0 -6 -7 -11 -15 -11
-8 0 -15 -5 -15 -11 0 -5 -4 -7 -10 -4 -5 3 -10 3 -10 -2 0 -4 -14 -14 -32
-22 -17 -8 -40 -21 -50 -30 -10 -9 -20 -14 -22 -11 -1 3 -11 -3 -21 -13 -9
-10 -24 -16 -32 -13 -8 3 -12 2 -9 -3 3 -4 -11 -17 -32 -27 -20 -10 -38 -22
-40 -26 -2 -5 -10 -8 -18 -8 -8 0 -14 -3 -14 -8 0 -4 -13 -13 -30 -20 -16 -7
-45 -24 -65 -38 -20 -13 -42 -26 -48 -27 -7 -1 -14 -4 -17 -8 -9 -10 -111 -69
-123 -72 -6 -1 -17 -8 -23 -16 -10 -12 -16 -12 -43 -2 -17 8 -28 17 -25 22 3
5 2 9 -3 8 -13 -3 -73 25 -73 33 0 4 -6 8 -13 8 -7 0 -28 11 -47 25 -18 13
-36 22 -40 20 -3 -2 -12 5 -20 15 -8 10 -17 17 -22 14 -4 -3 -8 0 -8 6 0 7 -7
10 -15 6 -8 -3 -15 -1 -15 4 0 5 -19 19 -42 31 -24 12 -45 24 -48 28 -3 3 -22
14 -42 23 -21 10 -38 23 -38 30 0 6 -3 9 -6 6 -8 -9 -147 75 -152 91 -3 8 0
11 5 8 6 -4 21 2 33 13 13 11 27 20 32 20 5 0 16 7 25 15 8 8 19 13 24 10 5
-4 9 -1 9 5 0 6 14 16 30 21 17 6 30 15 30 21 0 5 5 6 10 3 6 -3 10 -1 10 5 0
6 5 8 10 5 6 -3 10 -1 10 5 0 6 4 9 9 6 5 -3 11 1 15 9 3 8 12 15 21 15 8 0
15 5 15 12 0 6 3 9 6 5 4 -3 22 5 42 18 19 13 39 22 44 19 4 -3 8 2 8 11 0 9
5 13 10 10 6 -3 10 -1 10 5 0 6 5 8 10 5 6 -3 13 1 16 9 3 9 10 16 16 16 5 0
6 -6 3 -12 -4 -7 -1 -6 7 2 7 8 25 21 41 29 15 8 27 18 27 23 0 4 6 8 14 8 7
0 29 11 49 24 l35 24 41 -20 c23 -11 38 -24 35 -29 -3 -5 3 -6 12 -2 13 5 15
3 9 -7 -5 -8 -4 -11 2 -7 5 3 26 -5 46 -18 20 -14 41 -25 46 -25 6 0 11 -4 11
-9 0 -5 16 -15 35 -21 19 -6 33 -15 30 -20 -3 -5 6 -7 20 -5 14 1 25 -1 25 -5
0 -12 113 -6 138 8 12 7 22 10 22 7 0 -4 11 7 25 23 14 17 25 35 25 42 0 6 4
9 8 6 13 -8 7 65 -8 106 -8 20 -17 35 -22 32 -4 -3 -8 0 -8 7 0 15 -39 49 -56
49 -7 0 -17 6 -21 14 -4 8 -17 16 -28 18 -11 2 -19 10 -18 16 2 7 0 11 -5 10
-12 -4 -72 24 -72 33 0 5 -7 9 -15 9 -8 0 -24 9 -35 20 -11 11 -23 19 -26 18
-7 -1 -117 63 -124 74 -3 4 -17 9 -30 12 -14 3 -35 7 -47 10 -11 2 -23 2 -26
-1z"/>
<path d="M6670 11445 c0 -6 -27 -12 -62 -14 -64 -2 -113 -8 -113 -11 0 -2 -33
-8 -62 -12 -7 -1 -13 -5 -13 -10 0 -4 -3 -7 -7 -6 -14 4 -53 -13 -53 -22 0 -5
-7 -7 -15 -4 -8 4 -15 1 -15 -5 0 -6 -7 -11 -15 -11 -9 0 -18 -7 -21 -15 -4
-8 -10 -12 -15 -9 -5 3 -9 -2 -9 -10 0 -9 -7 -16 -15 -16 -8 0 -15 -7 -15 -17
0 -9 -3 -13 -7 -10 -7 7 -48 -53 -45 -65 1 -5 -3 -8 -10 -8 -6 0 -8 -3 -5 -6
3 -4 1 -16 -5 -28 -7 -11 -11 -29 -9 -38 1 -10 -1 -18 -6 -18 -4 0 -8 -23 -8
-50 0 -28 4 -50 9 -50 5 0 4 -6 -3 -13 -8 -10 -7 -17 1 -25 7 -7 9 -12 5 -12
-4 0 -1 -13 7 -29 9 -16 12 -31 9 -35 -4 -3 -1 -6 5 -6 7 0 12 -6 12 -13 0 -8
11 -24 25 -37 13 -12 22 -27 18 -33 -3 -6 -1 -7 5 -3 7 4 12 2 12 -5 0 -7 3
-10 6 -6 4 3 12 1 20 -6 33 -30 42 -35 48 -30 3 4 6 1 6 -6 0 -8 7 -11 15 -7
8 3 15 1 15 -4 0 -6 4 -10 9 -10 5 0 22 -5 38 -11 15 -7 35 -13 43 -15 34 -6
46 -10 58 -17 6 -5 17 -5 22 -2 6 3 10 2 10 -3 0 -5 6 -9 13 -9 21 -1 113 -21
137 -30 14 -6 26 -9 53 -16 37 -10 87 -43 98 -66 18 -35 19 -99 2 -105 -7 -3
-13 -13 -13 -22 0 -10 -3 -14 -7 -11 -3 4 -15 0 -25 -10 -10 -9 -18 -13 -18
-8 0 4 -7 1 -17 -6 -9 -8 -18 -13 -20 -11 -1 1 -4 2 -5 1 -2 0 -19 -2 -38 -5
-19 -2 -47 -6 -62 -8 -16 -2 -28 -1 -28 2 0 4 -27 8 -61 9 -33 1 -67 7 -76 15
-14 11 -16 11 -8 -2 7 -12 6 -13 -6 -3 -8 6 -18 12 -24 12 -18 2 -80 24 -91
32 -6 5 -14 6 -17 2 -4 -3 -7 -2 -7 4 0 6 -11 14 -25 17 -14 4 -25 11 -25 17
0 6 -4 8 -9 5 -5 -3 -12 1 -15 10 -5 13 -9 14 -20 5 -16 -14 -68 -116 -73
-146 -2 -10 -7 -22 -11 -25 -18 -12 -20 -39 -4 -53 19 -17 108 -64 132 -69 8
-2 18 -6 21 -11 3 -4 19 -9 35 -11 16 -2 40 -9 54 -14 14 -5 33 -8 43 -7 9 2
17 0 17 -5 0 -5 11 -7 25 -5 14 1 28 -2 31 -7 3 -5 12 -4 20 3 8 6 14 7 14 2
0 -11 194 -9 250 2 19 4 43 8 53 9 9 0 17 3 17 7 0 4 16 10 35 13 19 4 35 11
35 16 0 6 3 9 8 8 27 -6 139 84 155 125 3 9 11 17 17 17 5 0 10 8 10 18 0 10
3 22 7 26 4 3 8 16 10 28 2 12 9 26 16 31 9 7 9 10 -1 14 -6 2 -9 10 -5 16 15
22 10 82 -10 150 -11 37 -24 67 -28 67 -5 0 -6 8 -2 18 3 9 3 14 -1 10 -9 -7
-46 27 -46 43 0 5 -4 7 -10 4 -5 -3 -10 -1 -10 4 0 6 -6 11 -13 11 -7 0 -23 9
-35 20 -12 12 -22 18 -22 14 0 -3 -6 -1 -13 5 -8 6 -17 8 -20 4 -4 -3 -7 -1
-7 6 0 7 -6 11 -14 8 -8 -3 -16 -1 -18 5 -2 6 -15 12 -29 14 -24 2 -62 11 -66
14 -2 2 -6 3 -10 4 -5 1 -32 8 -62 15 -30 8 -62 15 -70 16 -9 1 -23 4 -31 7
-8 4 -33 12 -55 19 -22 7 -50 19 -62 27 -13 8 -23 10 -23 6 0 -5 -11 7 -24 26
-23 34 -28 73 -13 98 5 6 5 18 1 25 -4 6 -4 9 0 5 5 -4 18 4 30 16 24 27 78
46 140 52 24 2 47 4 52 5 5 1 11 1 14 -1 3 -1 21 -3 40 -5 19 -2 47 -5 63 -7
15 -1 27 -5 27 -9 0 -4 12 -6 26 -6 15 0 30 -6 34 -13 4 -6 10 -11 14 -11 23
3 36 0 32 -8 -4 -5 3 -7 14 -4 11 3 20 1 20 -5 0 -5 13 -14 28 -20 28 -9 28
-9 62 77 19 47 35 89 35 93 0 3 3 10 8 14 16 16 5 36 -27 49 -19 8 -38 19 -41
25 -4 6 -12 9 -18 8 -7 -1 -23 4 -37 12 -14 7 -26 13 -27 12 -2 -1 -4 -2 -5
-1 -14 4 -47 10 -65 12 -13 1 -23 4 -23 7 0 5 -12 6 -105 11 -27 2 -53 8 -57
13 -5 8 -8 8 -8 1z"/>
<path d="M11475 11441 c-3 -6 -19 -9 -34 -7 -23 2 -32 -2 -40 -20 -6 -13 -7
-24 -3 -24 10 0 9 -51 -2 -68 -4 -7 -3 -12 2 -12 12 0 10 -63 -3 -72 -7 -5 -6
-8 1 -8 6 0 10 -21 10 -50 -1 -27 -4 -50 -8 -50 -4 0 -5 -6 -2 -14 4 -10 -7
-13 -48 -13 -102 -1 -93 10 -92 -104 1 -101 14 -142 34 -109 5 8 10 10 10 5 0
-7 20 -10 49 -9 40 2 50 -1 54 -16 3 -10 0 -23 -6 -29 -7 -7 -7 -11 -1 -11 12
0 12 -49 0 -68 -4 -7 -3 -12 2 -12 10 0 9 -50 -2 -68 -4 -7 -3 -12 1 -12 5 0
8 -16 8 -35 0 -19 -4 -35 -10 -35 -6 0 -6 -3 0 -8 14 -9 13 -95 0 -104 -7 -5
-6 -8 1 -8 5 0 11 -21 13 -47 1 -26 5 -52 9 -57 3 -6 8 -22 10 -34 1 -13 12
-33 22 -45 11 -11 20 -26 20 -31 0 -6 16 -22 35 -35 19 -13 35 -27 35 -32 0
-5 8 -9 18 -9 10 0 23 -5 28 -10 6 -6 25 -12 42 -13 18 -1 32 -5 32 -8 0 -4
45 -7 100 -6 55 0 100 3 100 6 0 4 10 8 22 8 13 1 40 10 60 19 33 15 37 21 33
44 -2 14 -12 40 -20 58 -9 17 -14 36 -11 41 4 5 1 11 -4 13 -6 2 -12 10 -13
18 -5 29 -26 56 -35 43 -16 -25 -138 -37 -147 -15 -3 8 -8 12 -11 9 -9 -8 -45
32 -39 43 4 6 2 10 -3 10 -5 0 -9 23 -8 50 1 28 -2 50 -7 50 -4 0 -5 6 0 13
11 18 12 36 2 43 -5 3 -5 12 0 22 14 26 14 34 -1 43 -7 5 -8 9 -2 9 12 0 12
29 0 48 -4 6 -3 12 2 12 12 0 10 43 -3 52 -6 5 -5 8 4 8 10 0 11 3 2 14 -8 10
-9 16 -1 21 7 4 7 13 -1 27 -8 15 -8 19 0 14 6 -4 11 -2 11 4 0 7 15 10 40 7
25 -2 40 0 40 7 0 7 3 7 8 1 4 -5 35 -10 70 -10 34 0 63 5 63 10 7 52 2 205
-6 206 -5 1 -56 2 -112 3 -66 0 -106 5 -114 14 -8 7 -9 12 -3 12 6 0 11 7 11
15 0 8 -5 15 -11 15 -6 0 -5 4 2 9 8 4 14 12 14 16 0 4 -6 12 -14 16 -7 5 -8
9 -2 9 6 0 11 7 11 15 0 8 -5 15 -11 15 -8 0 -8 3 -1 8 14 9 13 95 0 104 -6 5
-6 8 1 8 12 0 12 29 -1 49 -6 10 -4 12 6 6 11 -7 12 -6 2 7 -7 8 -9 19 -5 24
4 4 0 3 -9 -4 -17 -12 -45 -12 -65 1 -6 3 -14 3 -18 -1 -11 -11 -79 -12 -92
-1 -8 7 -14 6 -19 0z"/>
<path d="M12216 11420 c-2 -3 -2 -64 -2 -137 1 -76 -3 -129 -8 -126 -5 4 -5 0
0 -8 11 -19 12 -239 0 -232 -5 4 -6 0 0 -8 11 -19 12 -399 0 -392 -5 4 -5 0 0
-8 12 -20 12 -239 -1 -231 -6 3 -5 0 1 -9 6 -8 10 -31 8 -51 -1 -21 1 -39 5
-39 3 -1 64 -2 134 -3 92 -2 133 1 145 11 14 10 15 14 3 22 -8 5 -9 11 -3 15
10 6 7 50 -5 69 -3 6 -1 7 5 3 7 -4 10 1 9 14 -1 11 -5 20 -10 20 -5 0 -5 6 0
13 6 6 8 21 6 32 -2 11 -4 26 -4 33 1 6 1 19 1 27 0 8 0 21 -1 28 0 6 2 21 4
32 4 19 13 20 173 23 213 4 234 5 234 15 0 5 8 7 18 6 17 -2 27 1 92 29 19 8
38 14 43 14 4 -1 7 2 7 7 0 5 8 12 18 15 10 4 33 20 50 37 18 17 32 27 32 23
0 -5 10 7 21 26 12 19 25 37 29 40 9 6 25 52 22 63 -1 4 2 7 7 7 10 0 25 68
25 108 0 12 2 22 5 22 3 0 5 24 4 52 -1 29 -2 53 -3 53 -1 0 -4 14 -6 30 -3
17 -7 37 -11 45 -3 8 -7 21 -9 29 -1 7 -7 18 -13 24 -6 6 -11 17 -11 24 0 25
-126 157 -141 147 -5 -3 -9 0 -9 5 0 6 -6 11 -14 11 -8 0 -16 5 -18 11 -2 5
-10 11 -18 13 -30 6 -75 19 -85 25 -5 3 -19 7 -30 8 -64 9 -77 12 -83 17 -3 3
-11 1 -18 -5 -8 -7 -14 -7 -19 1 -3 5 -11 10 -16 10 -6 0 -8 -4 -5 -8 6 -11
-25 -9 -42 2 -7 4 -19 2 -27 -4 -8 -7 -15 -8 -15 -3 0 5 -9 9 -20 10 -11 1
-18 -2 -16 -6 6 -10 -25 -8 -42 3 -7 4 -19 2 -27 -4 -8 -7 -15 -8 -15 -3 0 5
-9 9 -20 10 -11 1 -18 -2 -16 -6 6 -10 -25 -8 -42 3 -7 4 -19 2 -27 -4 -8 -7
-15 -8 -15 -3 0 5 -9 9 -20 10 -11 1 -18 -2 -16 -6 6 -10 -25 -8 -42 3 -7 4
-19 2 -27 -4 -8 -7 -15 -8 -15 -3 0 5 -9 9 -20 10 -11 1 -18 -2 -16 -6 3 -4
-1 -8 -9 -8 -8 0 -15 4 -15 8 0 8 -50 7 -54 -1z m324 -240 c5 8 15 10 26 5 11
-5 24 -7 29 -5 31 8 61 7 74 -3 10 -8 13 -8 8 -1 -7 13 83 12 138 -1 68 -16
145 -65 138 -87 -2 -5 1 -8 6 -8 7 0 19 -29 23 -60 1 -3 5 -20 9 -37 4 -18 3
-33 -1 -33 -5 0 -8 -12 -6 -27 2 -27 -12 -57 -44 -96 -16 -20 -90 -62 -90 -51
0 4 -7 1 -15 -6 -8 -7 -15 -10 -15 -7 0 3 -16 1 -35 -3 -24 -5 -35 -4 -35 4 0
7 -3 8 -8 0 -7 -11 -93 -11 -111 0 -5 4 -12 2 -15 -3 -3 -5 -23 -7 -43 -6 -21
2 -46 4 -56 4 -11 1 -17 7 -14 14 2 6 0 20 -5 31 -7 12 -7 16 0 12 6 -4 10 2
9 14 -1 11 -5 20 -10 20 -4 0 -5 6 0 13 10 16 11 28 1 55 -5 14 -4 21 1 17 6
-3 9 4 8 15 -1 11 -5 20 -10 20 -4 0 -5 6 0 13 10 16 11 28 1 55 -5 14 -4 21
1 17 6 -3 9 4 8 15 -1 11 -6 20 -11 20 -6 0 -5 5 2 12 9 9 9 15 -1 27 -10 12
-9 13 2 7 10 -7 12 -3 6 14 -7 23 16 51 24 29 2 -8 6 -7 11 1z"/>
<path d="M17845 11417 c-10 -5 -13 -13 -7 -20 10 -14 10 -57 -1 -74 -4 -6 -4
-14 1 -17 9 -6 8 -47 -2 -64 -4 -7 -3 -12 2 -12 10 0 10 -46 -1 -56 -3 -4 -3
-12 1 -18 11 -18 10 -66 -2 -66 -7 0 -8 -3 -1 -8 10 -6 11 -20 5 -39 -1 -5 -1
-12 0 -18 8 -38 8 -45 -3 -45 -8 0 -8 -3 1 -9 15 -9 15 -20 1 -37 -5 -6 -6
-14 -2 -18 12 -11 13 -45 3 -51 -6 -4 -7 -12 -3 -18 12 -19 11 -77 -1 -77 -8
0 -8 -3 -1 -8 10 -6 11 -20 5 -39 -1 -5 -1 -12 0 -18 8 -38 8 -45 -3 -45 -8 0
-8 -3 -2 -8 12 -8 13 -22 3 -38 -4 -6 -4 -14 -1 -18 11 -11 12 -40 2 -52 -6
-7 -6 -15 -1 -18 10 -6 9 -67 -2 -84 -4 -7 -3 -12 2 -12 10 0 10 -39 -1 -56
-3 -6 -3 -14 0 -18 11 -11 12 -40 2 -52 -6 -7 -6 -15 -2 -17 11 -7 9 -79 -2
-97 -5 -9 -4 -11 3 -6 7 4 12 4 12 -1 0 -4 60 -8 134 -8 128 -1 133 0 132 20
-1 11 3 23 9 27 6 5 5 8 -3 8 -10 0 -10 5 -2 20 8 15 8 20 -2 20 -10 0 -10 2
1 9 8 5 9 11 3 15 -7 4 -7 17 -2 36 5 19 5 28 -1 25 -13 -9 -11 9 3 23 9 9 9
12 0 12 -10 0 -10 5 -1 21 8 16 8 20 -1 14 -9 -6 -9 -2 -1 14 7 12 8 21 2 21
-10 0 -9 19 2 38 5 7 3 12 -4 12 -8 0 -8 4 1 15 8 9 8 15 2 15 -7 0 -8 10 -2
30 5 16 5 32 0 35 -5 3 -5 19 0 35 6 21 5 30 -3 30 -8 0 -7 3 2 9 9 6 10 11 2
15 -8 5 -8 13 -1 27 6 11 7 19 1 19 -12 0 -9 33 4 42 6 5 5 8 -4 8 -11 0 -11
3 -1 15 7 9 8 15 2 15 -12 0 -10 33 3 42 6 5 5 8 -3 8 -10 0 -10 5 -2 20 8 15
8 20 -2 20 -10 0 -10 2 1 9 8 5 9 11 3 15 -7 4 -7 17 -2 36 5 19 5 28 -1 25
-13 -9 -11 9 3 23 9 9 9 12 0 12 -10 0 -10 5 -1 21 8 16 8 20 -1 14 -9 -6 -9
-2 -1 14 7 12 8 21 2 21 -10 0 -9 19 2 38 5 7 3 12 -4 12 -8 0 -8 4 1 15 8 9
8 15 2 15 -7 0 -8 10 -2 30 5 16 5 32 0 35 -5 3 -5 19 0 35 6 21 5 30 -3 30
-8 0 -7 3 2 9 9 6 10 11 2 15 -8 5 -8 13 -1 27 8 13 7 19 0 19 -6 0 -9 4 -6 9
4 5 4 15 1 23 -4 11 -34 14 -130 14 -68 0 -131 -4 -140 -9z"/>
<path d="M13825 11150 c3 -6 3 -10 -2 -11 -43 -3 -73 -8 -92 -14 -18 -5 -22
-4 -16 6 5 8 -1 6 -13 -4 -11 -11 -26 -16 -31 -12 -6 3 -11 1 -11 -4 0 -6 -9
-11 -20 -11 -11 0 -20 -4 -20 -10 0 -5 -7 -7 -15 -4 -8 4 -15 2 -15 -4 0 -10
-38 -26 -55 -22 -5 1 -7 -2 -3 -6 4 -4 0 -13 -10 -20 -10 -8 -12 -13 -4 -14 6
0 12 -8 12 -17 0 -10 9 -29 20 -43 11 -14 20 -32 20 -40 0 -8 7 -24 15 -34 8
-10 12 -23 8 -29 -3 -6 -1 -7 5 -3 5 3 12 1 14 -5 3 -8 18 -3 43 12 94 57 218
76 323 50 38 -10 55 -23 103 -79 6 -7 8 -20 5 -28 -3 -7 -1 -14 5 -14 6 0 9
-10 7 -22 -2 -18 -9 -23 -30 -23 -16 1 -28 -3 -28 -7 0 -10 -23 -6 -31 6 -4 4
-15 4 -25 -2 -11 -6 -27 -7 -40 -2 -15 6 -24 5 -28 -3 -3 -9 -5 -9 -5 1 -1 9
-6 10 -20 2 -14 -7 -21 -6 -24 3 -3 9 -7 9 -19 -1 -11 -9 -18 -10 -23 -2 -4 6
-13 7 -23 1 -9 -5 -38 -11 -64 -14 -26 -3 -56 -10 -66 -16 -11 -6 -22 -8 -25
-4 -4 3 -9 -2 -13 -11 -3 -9 -10 -14 -14 -11 -5 3 -15 -2 -23 -10 -9 -8 -19
-15 -23 -15 -10 0 -54 -49 -54 -61 0 -5 -5 -9 -12 -9 -6 0 -8 -3 -5 -7 4 -3 2
-12 -4 -19 -6 -7 -11 -31 -12 -53 -1 -23 -5 -41 -8 -41 -6 0 -3 -40 5 -80 9
-40 38 -100 49 -100 6 0 8 -3 5 -6 -18 -18 117 -105 168 -108 13 0 24 -4 24
-8 0 -3 11 -5 25 -3 14 1 28 -2 31 -6 3 -5 14 -5 24 1 13 7 21 7 25 0 5 -8 11
-7 21 1 11 9 14 9 14 0 0 -7 5 -9 13 -4 6 4 21 9 32 10 11 2 30 5 42 8 13 3
26 6 30 6 5 1 21 11 37 22 16 12 26 15 21 7 -5 -9 -4 -11 3 -6 7 4 12 14 12
23 0 9 3 13 7 10 3 -4 16 4 28 17 l23 25 0 -42 c0 -23 0 -47 1 -52 1 -6 51
-10 129 -10 l127 0 -1 305 c-1 327 -3 388 -16 396 -5 3 -6 9 -3 14 3 5 1 11
-5 15 -6 4 -8 11 -5 16 4 5 1 9 -4 9 -6 0 -11 9 -11 20 0 11 -4 20 -9 20 -5 0
-14 14 -21 30 -7 17 -19 30 -27 30 -8 0 -11 5 -8 10 3 6 0 10 -8 10 -8 0 -22
9 -32 20 -10 11 -24 20 -32 20 -7 0 -13 5 -13 10 0 6 -9 10 -20 10 -11 0 -20
5 -20 11 0 5 -4 8 -9 5 -4 -3 -23 -1 -42 5 -19 6 -81 13 -139 15 -58 2 -111 6
-118 9 -7 3 -10 0 -7 -5z m111 -581 c-8 13 52 10 73 -3 9 -6 12 -5 7 2 -4 8 7
10 36 8 36 -3 43 -7 49 -30 4 -14 4 -26 0 -26 -4 0 -6 -13 -5 -29 1 -21 -8
-41 -33 -70 -19 -23 -40 -41 -46 -41 -7 0 -24 -6 -39 -14 -32 -17 -141 -15
-163 4 -8 7 -15 9 -15 6 0 -4 -7 -1 -15 8 -8 8 -15 19 -15 25 0 6 -5 11 -11
11 -6 0 -9 6 -6 13 2 6 0 20 -5 30 -6 11 -5 17 2 17 6 0 8 4 5 10 -3 5 1 20 9
32 9 12 16 18 16 13 0 -5 6 -1 13 10 8 10 19 15 25 11 7 -4 12 -3 12 3 0 13
70 19 94 8 12 -6 16 -6 12 2z"/>
<path d="M17130 11154 c0 -5 -24 -8 -54 -8 -45 2 -80 -3 -161 -19 -5 -2 -16
-6 -22 -10 -7 -5 -13 -5 -13 -2 0 4 -7 -1 -16 -9 -8 -9 -24 -16 -34 -16 -10 0
-20 -7 -24 -15 -3 -8 -11 -15 -18 -15 -17 0 -109 -86 -101 -94 4 -3 -1 -6 -11
-6 -9 0 -15 -4 -12 -9 3 -5 -4 -21 -15 -35 -11 -15 -22 -32 -23 -39 -1 -6 -8
-22 -14 -35 -7 -12 -10 -27 -7 -32 3 -6 2 -10 -3 -10 -5 0 -9 -6 -10 -12 -2
-37 -11 -85 -17 -100 -5 -12 -3 -18 5 -18 9 0 9 -4 3 -12 -6 -7 -9 -22 -6 -33
2 -11 5 -31 6 -45 2 -14 7 -31 11 -39 7 -10 5 -12 -3 -6 -10 6 -10 2 0 -16 7
-13 12 -28 11 -33 -2 -5 5 -17 14 -27 9 -11 14 -19 10 -19 -13 0 62 -108 92
-134 8 -6 24 -21 37 -32 13 -12 26 -19 29 -16 3 3 6 1 6 -5 0 -5 19 -18 43
-29 23 -10 45 -23 49 -29 4 -5 8 -7 8 -3 0 4 15 2 33 -4 17 -5 38 -10 45 -11
6 0 12 -5 12 -11 0 -6 5 -4 10 4 5 8 10 10 10 4 0 -6 16 -10 35 -9 20 1 35 -3
35 -9 0 -6 5 -4 10 4 5 8 10 10 10 5 0 -6 9 -11 20 -11 11 0 20 4 20 9 0 5 6
4 13 -2 8 -6 17 -8 20 -4 4 3 29 8 57 10 28 2 73 12 100 23 28 11 50 16 50 12
0 -4 5 1 11 11 5 9 16 17 23 17 7 0 21 9 31 20 10 11 24 20 32 20 7 0 13 4 13
9 0 5 7 17 16 25 14 15 12 19 -20 51 -20 19 -36 39 -36 45 0 5 -7 10 -15 10
-8 0 -15 5 -15 11 0 7 -11 22 -25 35 -25 23 -26 23 -45 4 -11 -11 -22 -20 -25
-20 -3 0 -16 -7 -29 -15 -24 -16 -56 -26 -88 -28 -10 -1 -18 -6 -18 -12 0 -5
-4 -4 -9 4 -6 9 -10 10 -16 2 -5 -9 -11 -9 -23 1 -13 11 -14 11 -8 -1 7 -10 4
-12 -13 -6 -11 3 -34 7 -51 7 -16 1 -30 5 -30 10 0 4 -3 7 -7 6 -14 -5 -73 24
-73 35 0 6 -3 7 -6 4 -9 -9 -41 29 -65 76 -22 42 -17 66 9 45 13 -11 14 -11 7
1 -6 11 -3 13 18 7 14 -3 29 -1 32 4 5 8 11 7 21 -1 8 -6 17 -9 21 -6 3 4 13
1 21 -6 10 -7 13 -8 9 -1 -8 14 130 13 152 -1 9 -5 12 -4 7 3 -8 13 92 10 114
-3 9 -5 11 -4 6 3 -8 14 51 11 73 -2 9 -6 12 -5 8 1 -5 7 26 10 91 8 65 -1 99
2 101 9 8 46 2 185 -10 201 -4 6 -7 12 -6 15 2 13 -28 100 -35 100 -4 0 -8 6
-8 14 0 7 -7 19 -15 26 -9 7 -14 15 -11 17 5 5 -51 62 -99 99 -35 27 -98 59
-117 59 -3 0 -10 3 -14 8 -4 4 -16 7 -26 7 -10 0 -18 6 -18 13 0 9 -3 8 -9 -2
-6 -9 -11 -10 -15 -2 -4 6 -12 9 -17 5 -5 -3 -16 0 -24 6 -8 7 -15 9 -15 4z
m23 -229 c20 -4 37 -11 37 -17 0 -5 5 -6 10 -3 6 3 10 1 10 -4 0 -6 6 -11 13
-11 7 0 19 -10 27 -21 8 -12 21 -28 28 -35 7 -8 11 -14 7 -14 -4 0 1 -7 9 -16
9 -8 13 -20 10 -26 -4 -6 -2 -13 4 -17 6 -4 5 -11 -4 -19 -11 -10 -14 -10 -14
0 0 9 -3 9 -10 -2 -7 -11 -10 -11 -10 -2 0 10 -5 10 -20 2 -11 -6 -20 -7 -20
-2 0 5 -16 8 -35 8 -19 -1 -35 -4 -35 -8 0 -10 -23 -6 -31 6 -4 4 -15 4 -25
-2 -11 -6 -27 -7 -41 -1 -16 6 -23 5 -24 -4 0 -9 -2 -9 -6 0 -3 9 -10 10 -24
3 -10 -6 -19 -7 -19 -2 0 5 -16 8 -35 8 -19 -1 -35 -4 -35 -7 0 -3 -7 -6 -15
-6 -8 0 -15 4 -15 9 0 5 -8 8 -17 6 -21 -3 -19 10 5 62 18 37 78 101 87 92 3
-3 5 1 5 8 0 7 2 11 5 8 3 -3 22 0 42 7 37 13 71 13 136 0z"/>
<path d="M8620 11142 c0 -4 -25 -7 -55 -7 -30 1 -55 -3 -55 -8 0 -4 -4 -6 -9
-2 -5 3 -13 0 -17 -6 -4 -8 -9 -7 -15 2 -7 11 -9 11 -9 1 0 -7 -4 -10 -10 -7
-5 3 -10 2 -10 -3 0 -5 -10 -13 -22 -17 -13 -4 -26 -8 -30 -10 -5 -1 -12 -3
-18 -4 -5 0 -9 -7 -7 -13 1 -7 -3 -12 -10 -11 -6 2 -21 -9 -32 -24 -12 -14
-21 -22 -21 -17 0 5 -5 1 -11 -10 -11 -17 -14 -15 -49 23 -21 22 -43 41 -49
41 -6 0 -11 5 -11 10 0 6 -7 10 -15 10 -8 0 -15 5 -15 12 0 6 -3 8 -7 5 -3 -4
-12 -2 -20 4 -7 6 -13 8 -13 4 0 -4 -7 -1 -16 6 -16 13 -209 23 -229 11 -12
-8 -34 -13 -57 -15 -9 -1 -14 -5 -12 -9 3 -4 -4 -8 -14 -8 -11 0 -25 -7 -32
-15 -7 -8 -16 -12 -21 -9 -5 3 -9 -2 -9 -11 0 -9 -5 -13 -10 -10 -6 3 -13 -1
-16 -9 -11 -29 -24 -16 -22 22 0 22 -2 43 -5 49 -3 5 -61 9 -134 8 l-128 0 2
-28 c2 -19 -2 -25 -10 -20 -9 5 -9 3 -1 -8 15 -18 15 -69 0 -69 -7 0 -8 -3 -1
-8 14 -9 14 -175 1 -184 -8 -5 -8 -8 -1 -8 15 0 16 -40 2 -40 -8 0 -8 -3 -2
-8 14 -9 14 -175 1 -184 -8 -5 -8 -8 -1 -8 15 0 16 -40 2 -40 -8 0 -8 -3 -2
-8 14 -10 16 -84 2 -75 -6 4 -7 1 -1 -8 13 -20 14 -80 1 -72 -6 4 -7 1 -1 -8
12 -19 14 -80 2 -73 -5 3 -4 -4 4 -15 11 -18 11 -23 -2 -31 -12 -8 -12 -10 -1
-10 9 0 12 -8 9 -24 -3 -14 0 -27 6 -28 6 -2 69 -4 141 -3 l129 1 1 62 c1 34
-2 62 -7 62 -5 0 -6 6 -1 13 12 19 11 107 -1 107 -8 0 -8 3 0 8 12 8 13 90 2
108 -4 6 -4 14 -1 18 11 11 11 106 0 106 -6 0 -5 5 1 13 6 7 9 25 8 40 -2 15
0 27 4 27 4 0 7 7 8 15 1 8 3 22 4 30 1 8 5 15 10 15 4 0 8 5 8 11 0 16 52 69
62 63 4 -3 8 0 8 6 0 6 5 8 10 5 6 -3 10 -1 10 5 0 6 4 9 9 5 5 -3 12 -2 14 2
5 7 28 8 103 4 11 -1 30 -10 41 -20 12 -11 23 -18 25 -16 2 3 17 -18 32 -46
15 -28 25 -53 22 -56 -2 -3 -1 -16 5 -30 6 -16 6 -22 -1 -18 -6 4 -7 -2 -2
-17 5 -13 8 -134 7 -270 0 -160 3 -249 10 -251 9 -3 214 -1 256 2 14 1 16 7 9
36 -4 19 -4 35 1 35 5 0 5 10 0 23 -5 13 -6 30 -1 37 5 7 4 24 -1 37 -5 14 -5
23 1 23 6 0 6 9 1 23 -5 13 -5 30 -1 37 5 8 4 22 -1 32 -6 11 -6 18 0 18 10 0
9 19 -2 38 -5 6 -4 12 1 12 5 0 6 17 2 40 -5 25 -4 40 3 40 5 0 5 5 -2 13 -6
8 -9 16 -6 18 2 3 7 29 10 59 6 57 51 163 65 155 4 -3 11 2 14 11 3 8 10 13
15 10 5 -4 11 -1 13 5 2 6 16 12 31 12 15 1 27 5 27 8 0 3 18 6 40 5 22 -1 40
-4 40 -8 0 -4 7 -5 15 -2 8 4 15 2 15 -2 0 -5 14 -15 30 -22 17 -8 28 -18 24
-23 -3 -5 -1 -9 4 -9 11 0 30 -43 37 -83 3 -15 7 -38 9 -52 3 -13 0 -27 -5
-31 -5 -3 -6 -10 -2 -17 10 -16 10 -237 0 -237 -4 0 -5 -6 0 -12 10 -17 11
-128 1 -134 -5 -3 -4 -13 0 -22 5 -9 8 -29 7 -44 -1 -16 3 -29 9 -29 6 -1 67
-2 136 -3 117 -1 125 0 131 19 3 11 2 28 -4 39 -5 11 -5 21 0 25 10 7 9 43 -1
60 -4 6 -2 11 4 11 7 0 8 6 1 18 -5 9 -6 38 -2 64 4 26 3 54 -2 63 -5 10 -6
20 0 24 10 7 9 43 -1 60 -4 6 -2 11 4 11 7 0 8 6 1 18 -5 9 -6 38 -2 64 4 25
4 53 0 60 -4 8 -4 30 0 50 6 23 5 40 -2 47 -6 6 -8 11 -5 11 4 0 2 15 -4 33
-5 17 -11 39 -12 48 -3 22 -35 87 -46 94 -6 4 -9 9 -7 13 2 4 -16 26 -40 48
-24 23 -43 40 -43 37 0 -3 -11 2 -25 11 -13 9 -31 16 -40 16 -8 0 -15 5 -15
12 0 6 -3 8 -6 5 -4 -3 -15 -2 -25 4 -14 7 -19 6 -19 -2 0 -8 -4 -8 -15 1 -9
7 -18 10 -21 7 -3 -3 -17 -2 -30 3 -13 5 -24 6 -24 2z"/>
<path d="M9707 11144 c-3 -3 -34 -8 -69 -10 -56 -3 -103 -10 -103 -14 0 -1 -9
-3 -19 -5 -11 -2 -31 -7 -45 -11 -14 -4 -29 -7 -33 -6 -5 1 -8 -2 -8 -8 0 -5
-3 -9 -7 -8 -13 4 -87 -35 -96 -49 -5 -7 -13 -11 -19 -7 -5 4 -4 -4 3 -17 7
-13 12 -27 11 -31 -1 -5 3 -8 9 -8 5 0 7 -4 4 -10 -3 -5 -2 -10 3 -10 9 0 25
-37 23 -52 -1 -5 4 -8 10 -8 5 0 7 -4 4 -10 -3 -5 -2 -10 3 -10 5 0 12 -9 15
-20 5 -20 37 -29 37 -10 0 6 7 10 15 10 8 0 15 4 15 9 0 8 77 36 135 48 40 8
163 6 178 -4 7 -4 18 -8 25 -9 12 -2 47 -37 77 -76 6 -7 12 -29 13 -50 l3 -36
-135 1 c-75 1 -136 -1 -136 -4 0 -3 -16 -5 -35 -4 -19 1 -35 -1 -35 -4 0 -3
-12 -7 -27 -8 -41 -2 -67 -7 -73 -14 -3 -3 -21 -12 -40 -21 -60 -29 -116 -92
-123 -138 -2 -8 -5 -19 -8 -25 -14 -25 -9 -116 10 -170 20 -56 85 -135 111
-135 6 0 8 -6 4 -12 -4 -7 -4 -10 1 -6 4 4 24 0 44 -8 20 -9 43 -17 51 -19 8
-2 15 -4 15 -6 0 -1 40 -3 90 -4 60 -2 92 1 97 8 6 9 8 9 8 0 0 -10 14 -8 50
6 28 11 50 17 50 15 0 -3 12 6 27 20 15 14 30 23 35 20 4 -3 8 0 8 6 0 6 7 18
15 26 13 14 15 10 15 -34 0 -57 2 -59 83 -57 35 1 57 -3 57 -9 0 -8 2 -8 8 0
4 6 30 10 57 9 l50 -1 5 41 c3 22 2 52 -2 67 -3 15 -3 30 2 33 6 3 5 16 0 29
-5 13 -6 27 -2 31 10 10 8 39 -3 47 -7 5 -7 8 0 8 10 0 11 81 1 106 -3 7 -1
16 4 19 6 3 6 15 0 29 -5 13 -6 27 -2 31 10 10 8 39 -3 47 -7 5 -7 8 0 8 6 0
9 17 8 37 -1 21 -2 38 -3 38 -1 0 -3 20 -5 45 -1 25 -3 45 -5 45 -1 0 -4 13
-6 30 -3 16 -10 35 -16 42 -6 7 -8 13 -4 13 3 0 -4 18 -15 40 -12 22 -26 40
-32 40 -6 0 -8 3 -4 6 8 9 -16 33 -27 26 -5 -3 -7 2 -3 11 3 9 3 16 -1 16 -21
-3 -32 2 -26 13 4 6 3 8 -4 4 -6 -3 -17 1 -26 10 -9 8 -20 12 -26 9 -6 -3 -13
0 -16 8 -2 7 -10 14 -17 15 -21 2 -42 7 -53 14 -6 4 -43 10 -84 13 -40 3 -76
8 -80 10 -4 3 -10 2 -13 -1z m-24 -587 c18 12 167 10 167 -2 0 -5 5 -3 10 5 7
12 12 12 22 2 15 -15 14 -102 -2 -112 -7 -4 -12 -11 -12 -16 -1 -15 -35 -54
-41 -47 -4 3 -9 -2 -13 -11 -3 -9 -10 -13 -15 -10 -5 3 -9 1 -9 -4 0 -11 -15
-13 -104 -15 -47 -1 -71 2 -74 11 -2 7 -8 10 -13 6 -5 -3 -9 0 -9 7 0 7 -3 9
-7 6 -3 -4 -14 6 -24 23 -20 32 -20 101 -1 108 7 2 10 7 7 12 -3 5 4 11 15 15
11 3 20 12 20 18 0 7 4 6 10 -3 7 -11 10 -11 10 -2 0 7 4 11 8 8 4 -2 14 -1
22 4 9 6 16 6 18 0 2 -6 9 -7 15 -3z"/>
<path d="M10975 11141 c-6 -6 -25 -11 -43 -13 -19 -1 -36 -6 -38 -10 -3 -5
-10 -6 -15 -3 -5 4 -9 1 -9 -5 0 -7 -6 -10 -12 -8 -7 3 -19 -1 -26 -9 -8 -7
-18 -10 -24 -7 -7 4 -8 2 -4 -4 4 -7 3 -12 -2 -12 -4 0 -17 -8 -28 -17 -49
-45 -49 -45 -48 5 1 26 0 52 -3 57 -2 7 -51 11 -131 10 l-127 0 -1 -85 c0 -47
-3 -91 -8 -98 -4 -6 -3 -12 2 -12 11 0 10 -50 -1 -67 -5 -7 -4 -13 1 -13 11 0
10 -50 -1 -67 -5 -7 -4 -13 1 -13 11 0 10 -50 -1 -67 -5 -7 -5 -13 0 -13 10 0
9 -372 -1 -388 -4 -7 -3 -12 2 -12 5 0 8 -27 6 -60 -1 -33 1 -60 5 -61 3 -1
65 -2 138 -3 l131 -1 -2 25 c-1 14 2 31 7 38 6 8 6 12 -2 12 -7 0 -8 8 -1 25
5 14 6 25 2 25 -4 0 -7 31 -7 69 0 38 3 67 6 65 3 -2 3 16 0 39 -8 54 -7 69 2
85 5 6 4 12 -2 12 -7 0 -7 8 -1 24 6 17 5 26 -3 29 -8 3 -9 8 -2 18 6 8 10 26
9 42 0 15 3 27 8 27 5 0 7 4 4 9 -9 14 15 72 27 64 5 -3 7 -2 4 4 -7 12 20 53
35 53 6 0 16 7 23 17 7 9 21 17 31 18 11 0 25 4 32 9 6 4 12 4 12 0 0 -3 7 -1
15 6 12 10 15 10 15 0 0 -9 3 -10 13 -1 10 8 17 7 25 -1 9 -9 12 -9 12 0 0 10
5 10 21 1 17 -9 20 -8 14 2 -6 9 -3 11 9 6 14 -6 15 -3 6 13 -8 15 -8 20 2 20
10 0 10 2 -1 9 -8 5 -9 11 -3 15 7 4 7 17 2 36 -6 21 -5 30 3 30 7 0 6 4 -3
10 -8 5 -10 10 -4 10 6 0 10 10 8 23 -1 12 -3 37 -3 56 -1 32 -3 33 -30 28
-16 -4 -31 -2 -33 4 -2 6 -7 6 -13 0z"/>
<path d="M15110 11140 c-8 -5 -18 -6 -22 -4 -4 3 -8 0 -8 -6 0 -6 -4 -9 -9 -5
-15 9 -119 -47 -126 -68 -4 -9 -11 -15 -16 -12 -5 4 -9 1 -9 -4 0 -6 -4 -11
-9 -11 -4 0 -8 17 -8 38 -1 20 -1 44 -2 52 -1 13 -22 15 -131 15 -79 0 -130
-4 -131 -10 -5 -56 -4 -97 3 -101 5 -3 5 -10 2 -16 -10 -15 -11 -138 -2 -144
5 -3 6 -10 2 -15 -9 -15 -11 -140 -2 -145 5 -3 5 -10 2 -16 -10 -15 -11 -138
-2 -144 5 -3 5 -10 2 -16 -10 -15 -11 -138 -2 -144 5 -3 5 -10 2 -16 -10 -16
-11 -148 -1 -148 4 0 5 -6 0 -12 -18 -30 -8 -33 131 -33 l141 0 0 190 c0 105
4 195 8 201 3 6 4 14 0 18 -8 8 -12 106 -4 106 4 0 8 12 9 26 3 37 32 95 45
87 5 -3 7 -1 3 5 -3 6 6 20 21 31 16 11 33 25 39 30 7 6 14 7 18 4 3 -3 11 -1
18 4 7 6 23 9 36 8 12 -1 22 2 22 6 0 9 20 7 37 -4 6 -4 14 -3 17 2 3 5 14 7
24 4 17 -4 18 4 16 119 -1 68 -2 126 -3 130 0 3 -17 6 -36 6 -21 0 -32 -4 -29
-10 4 -6 0 -6 -13 0 -11 6 -25 7 -33 2z"/>
<path d="M15870 11139 c0 -6 -9 -8 -19 -4 -11 3 -22 1 -26 -5 -3 -6 -10 -8
-15 -5 -5 3 -20 0 -32 -7 -13 -7 -28 -11 -34 -10 -5 1 -20 -7 -31 -17 -11 -11
-24 -17 -28 -13 -3 4 -11 -1 -16 -11 -6 -9 -15 -17 -21 -17 -6 0 -35 -25 -65
-55 -30 -30 -52 -55 -48 -55 3 0 -1 -7 -9 -16 -9 -8 -14 -20 -11 -25 4 -5 1
-9 -5 -9 -10 0 -28 -35 -35 -70 -2 -8 -4 -15 -5 -15 -2 0 -5 -12 -14 -60 -9
-44 -6 -200 4 -200 2 0 9 -37 12 -62 1 -7 5 -13 10 -13 4 0 8 -9 8 -20 0 -11
5 -20 11 -20 5 0 7 -4 4 -10 -3 -5 -1 -10 6 -10 7 0 10 -3 6 -6 -3 -4 1 -13 9
-21 8 -8 11 -20 7 -26 -3 -7 -3 -9 1 -6 4 4 28 -14 54 -40 64 -62 84 -77 126
-92 20 -7 36 -16 36 -19 0 -4 7 -7 15 -8 8 -1 22 -3 30 -4 8 -1 15 -4 15 -8 0
-5 38 -11 93 -13 9 -1 17 -6 17 -12 0 -5 4 -4 9 4 6 9 11 10 15 2 5 -8 13 -8
28 0 16 9 19 8 13 -2 -5 -7 -4 -10 3 -5 10 6 80 16 135 19 9 1 17 5 17 9 0 4
7 8 15 8 20 0 111 46 120 60 4 6 11 7 17 4 6 -4 8 -2 4 4 -3 6 3 13 14 17 11
4 18 11 15 16 -4 5 -2 9 4 9 5 0 18 13 27 29 10 17 20 28 24 26 3 -2 7 11 8
30 2 28 -2 35 -25 44 -34 13 -93 46 -111 61 -7 6 -16 9 -21 6 -5 -3 -12 1 -15
10 -3 8 -10 12 -16 9 -5 -3 -10 0 -10 7 0 7 -10 -3 -21 -22 -12 -19 -30 -41
-40 -48 -10 -7 -25 -19 -33 -27 -8 -8 -27 -16 -43 -18 -16 -2 -34 -6 -40 -10
-14 -9 -94 -6 -88 3 2 4 -6 6 -17 5 -28 -2 -76 22 -91 46 -6 10 -18 19 -25 19
-7 0 -11 4 -8 9 3 5 -1 12 -10 15 -8 3 -12 10 -9 16 3 5 1 10 -6 10 -7 0 -9 3
-6 7 4 3 2 12 -4 19 -6 8 -9 21 -5 29 3 8 2 15 -3 15 -5 0 -11 16 -13 35 -2
19 0 35 5 35 5 0 4 7 -3 15 -8 9 -8 15 -2 15 6 0 10 8 10 18 -2 24 22 94 38
110 8 7 17 18 21 25 8 13 52 43 66 45 4 1 20 8 35 15 24 12 103 15 142 4 36
-10 70 -27 70 -36 0 -5 9 -13 20 -16 11 -4 18 -10 16 -14 -3 -4 4 -13 14 -21
10 -8 17 -17 14 -21 -3 -5 9 -7 26 -6 17 1 30 8 30 15 0 7 5 10 10 7 6 -3 13
1 16 9 3 9 10 13 15 10 5 -3 9 -1 9 5 0 6 7 8 15 5 8 -4 15 -2 15 3 0 5 18 17
40 27 22 10 40 22 40 27 0 6 6 7 13 3 6 -4 4 2 -5 13 -10 11 -18 25 -18 31 0
7 -5 12 -12 12 -6 0 -9 3 -5 6 7 8 -88 104 -103 104 -6 0 -9 4 -6 8 2 4 -5 9
-16 9 -12 1 -24 6 -27 10 -6 8 -62 30 -103 39 -45 11 -238 13 -238 3z"/>
<path d="M14449 9988 c-1 -2 -3 -23 -5 -48 -9 -99 -9 -152 -2 -157 5 -2 6 -9
2 -14 -3 -6 3 -5 15 2 11 8 17 16 13 19 -10 8 -8 44 3 52 7 5 6 8 -1 8 -6 0
-9 15 -8 35 2 19 -1 35 -7 35 -5 0 -4 10 3 21 11 17 11 23 0 26 -6 3 -10 9 -6
14 3 5 3 9 0 9 -3 0 -7 -1 -7 -2z"/>
<path d="M15325 9982 c-14 -10 -13 -34 2 -39 9 -3 12 4 11 21 -1 14 -3 26 -3
26 0 0 -5 -4 -10 -8z"/>
<path d="M12457 9973 c-3 -2 -12 -5 -20 -7 -20 -3 -42 -27 -44 -50 -2 -25 32
-60 51 -53 9 4 16 3 16 -2 0 -5 6 -9 13 -8 54 2 74 -4 73 -21 -2 -29 -28 -47
-68 -47 -20 0 -34 3 -32 7 2 4 -5 9 -16 13 -11 4 -17 11 -14 17 4 6 1 9 -7 6
-8 -3 -15 -15 -15 -27 -1 -12 1 -19 4 -17 2 3 14 0 26 -6 58 -33 154 -3 154
47 0 14 -5 25 -10 25 -5 0 -7 4 -4 9 8 12 -12 18 -46 16 -16 -1 -28 2 -28 6 0
4 -9 6 -20 4 -19 -4 -50 18 -50 35 0 9 27 23 55 26 27 4 76 -16 69 -28 -3 -5
4 -4 15 4 17 10 18 14 6 16 -8 2 -15 9 -15 17 0 7 -11 15 -25 17 -15 3 -22 1
-18 -5 4 -6 1 -7 -8 -1 -17 10 -36 14 -42 7z"/>
<path d="M13922 9971 c-8 -4 -14 -12 -14 -16 0 -4 6 -12 14 -16 10 -7 10 -9 0
-9 -8 0 -10 -5 -6 -12 6 -10 4 -10 -7 -2 -19 15 -69 24 -69 12 0 -5 -3 -7 -7
-5 -15 8 -39 -29 -38 -58 0 -17 -4 -33 -8 -36 -5 -4 5 -20 22 -38 30 -31 48
-41 35 -19 -5 7 -3 8 6 3 17 -11 80 -12 80 -2 0 5 3 6 8 4 4 -3 7 42 7 99 0
57 -2 104 -5 104 -3 0 -11 -4 -18 -9z m-20 -78 c10 -3 15 -9 12 -14 -3 -5 0
-9 7 -9 8 0 8 -4 2 -12 -6 -7 -9 -23 -8 -35 4 -46 -89 -34 -97 12 -8 39 23 80
52 69 8 -4 23 -9 32 -11z"/>
<path d="M14230 9968 c0 -5 -4 -7 -9 -3 -5 3 -12 1 -16 -5 -4 -6 -10 -8 -14
-5 -5 2 -11 -10 -15 -28 -4 -19 -2 -33 4 -35 5 -2 10 -9 10 -16 0 -12 17 -16
82 -19 21 -1 38 -6 38 -10 0 -5 4 -6 8 -3 14 9 10 -28 -5 -43 -21 -21 -121
-13 -108 9 3 4 -2 11 -11 14 -21 8 -20 9 -21 -12 -2 -26 33 -44 94 -48 40 -3
52 -1 47 8 -5 8 -2 9 10 5 9 -4 15 -3 12 2 -3 5 1 12 10 15 8 3 13 10 10 15
-4 5 0 12 6 14 10 4 10 6 1 6 -7 1 -13 10 -13 22 0 11 -4 17 -10 14 -5 -3 -10
-2 -10 4 0 5 -8 8 -17 6 -10 -1 -24 3 -32 9 -12 9 -13 8 -6 -3 6 -10 4 -12 -6
-6 -7 5 -21 10 -30 10 -9 1 -23 8 -31 16 -12 12 -12 17 -3 26 7 7 16 9 19 6 3
-4 6 -2 6 3 0 5 16 10 35 11 19 1 35 -2 35 -8 0 -5 11 -9 25 -9 28 0 31 6 12
23 -21 20 -107 31 -107 15z"/>
<path d="M15199 9970 c-12 -130 8 -283 21 -164 3 27 2 59 -2 72 -4 12 -4 22 1
22 5 0 7 15 4 33 -5 35 -22 61 -24 37z"/>
<path d="M15455 9964 c-8 -9 -13 -19 -10 -24 3 -5 -1 -10 -7 -13 -10 -3 -11
-9 0 -26 15 -26 15 -34 1 -25 -7 4 -7 -1 1 -16 10 -18 9 -24 -1 -31 -11 -7
-11 -9 -1 -9 9 0 10 -5 3 -19 -8 -14 -7 -22 3 -30 20 -16 24 -5 22 62 -1 49 2
61 18 69 19 10 19 11 1 24 -21 16 -17 24 14 27 12 1 20 6 18 11 -5 16 -45 16
-62 0z"/>
<path d="M15601 9962 c-7 -14 -6 -18 8 -19 10 -1 17 6 17 18 0 24 -12 25 -25
1z"/>
<path d="M16089 9968 c-1 -7 -1 -19 0 -25 1 -9 -14 -13 -46 -13 -35 0 -53 -5
-65 -19 -9 -11 -14 -22 -11 -25 4 -3 0 -6 -8 -6 -11 0 -11 -2 1 -10 8 -5 10
-10 4 -10 -6 0 -10 -8 -9 -17 1 -18 34 -84 35 -71 0 4 13 2 29 -3 21 -7 36 -7
50 0 15 8 22 8 27 -1 11 -18 21 28 19 85 -2 29 2 47 9 47 8 0 8 3 0 8 -6 4
-10 20 -10 36 0 29 -23 51 -25 24z m-30 -64 c6 4 11 0 11 -8 0 -9 5 -16 11
-16 6 0 9 -6 6 -14 -3 -7 -1 -18 4 -23 14 -14 -33 -59 -58 -55 -13 2 -23 8
-23 13 0 6 -5 7 -12 3 -6 -4 -8 -3 -4 4 3 6 2 13 -4 17 -5 3 -8 15 -7 26 4 25
50 69 58 56 4 -5 12 -6 18 -3z"/>
<path d="M17076 9964 c-3 -8 0 -14 5 -14 7 0 9 -9 5 -22 -11 -35 -13 -109 -3
-115 4 -2 4 -10 -2 -17 -12 -14 0 -38 14 -28 15 10 13 201 -1 206 -7 3 -15 -2
-18 -10z"/>
<path d="M17444 9973 c-7 -2 -9 -13 -6 -25 3 -14 1 -19 -6 -14 -7 4 -12 5 -12
2 0 -2 -3 -12 -6 -20 -4 -12 -2 -15 9 -10 8 3 18 0 23 -7 5 -8 3 -10 -7 -4
-12 7 -12 6 -1 -7 8 -10 9 -19 3 -22 -5 -4 -7 -16 -5 -29 3 -12 6 -28 6 -34 1
-7 9 -20 18 -28 14 -13 23 -13 46 -4 27 10 27 12 9 19 -12 4 -23 3 -27 -4 -12
-19 -21 22 -19 87 0 20 4 36 9 36 31 -5 44 14 16 25 -10 4 -13 2 -9 -7 4 -6 0
-3 -9 7 -8 10 -13 22 -11 27 7 10 -7 17 -21 12z"/>
<path d="M17600 9970 c-11 -7 -11 -10 -2 -10 7 0 10 -4 7 -10 -3 -5 1 -10 9
-10 9 0 16 9 16 20 0 22 -7 25 -30 10z"/>
<path d="M16357 9963 c-3 -5 -4 -36 -3 -71 2 -35 -1 -65 -6 -68 -5 -3 -5 -11
-1 -17 4 -7 8 -15 8 -18 0 -9 35 -41 35 -32 0 11 60 11 77 0 13 -8 49 6 46 19
-3 15 -26 21 -62 14 -61 -11 -67 -4 -68 80 -1 41 -2 81 -2 88 -1 13 -17 16
-24 5z"/>
<path d="M12692 9917 c-36 -27 -52 -42 -32 -32 12 7 13 6 4 -6 -25 -31 0 -97
40 -108 28 -7 75 -5 84 4 12 12 -13 23 -38 18 -31 -6 -60 10 -60 33 0 9 8 10
30 4 19 -5 30 -5 30 1 0 6 8 5 20 -1 14 -8 20 -8 20 0 0 6 4 9 8 6 4 -2 14 -1
22 5 10 5 10 9 3 9 -6 0 -10 9 -8 19 4 24 -31 57 -68 63 -18 4 -37 -1 -55 -15z
m95 -42 c0 -8 -4 -15 -9 -15 -5 0 -6 -5 -2 -11 3 -6 -8 -3 -26 6 -18 9 -29 12
-26 7 3 -6 -5 -9 -18 -8 -30 1 -27 24 4 41 28 15 77 2 77 -20z"/>
<path d="M12965 9932 c-26 -5 -55 -31 -55 -49 0 -8 -5 -11 -11 -7 -8 5 -8 1 0
-14 8 -15 8 -22 -2 -25 -9 -4 -9 -6 1 -6 6 -1 12 -8 12 -17 0 -18 25 -46 34
-37 3 4 6 2 6 -4 0 -5 16 -10 35 -10 19 0 35 5 35 10 0 5 6 7 14 4 13 -5 14
-1 7 32 -1 2 -7 -2 -14 -8 -8 -6 -17 -8 -20 -4 -4 3 -7 2 -7 -4 0 -14 -40 -4
-58 14 -7 7 -10 13 -5 13 4 0 1 5 -7 10 -13 9 -13 10 0 10 13 0 13 1 0 10 -9
6 -11 10 -3 10 7 0 10 6 7 13 -6 17 34 39 61 33 11 -2 25 -5 30 -6 21 -5 26 0
13 13 -16 17 -47 24 -73 19z"/>
<path d="M14751 9933 c-1 -7 -7 -13 -15 -13 -8 0 -17 -6 -19 -12 -4 -10 -8 -9
-16 2 -7 11 -29 15 -75 15 -56 0 -64 -2 -61 -17 2 -10 -1 -20 -6 -23 -5 -4 -7
-11 -3 -16 10 -18 12 -59 1 -59 -5 0 -5 -5 2 -13 6 -8 8 -17 4 -20 -3 -4 5 -7
18 -7 13 0 20 4 14 8 -14 10 -17 32 -4 32 8 0 8 4 1 13 -11 14 2 57 18 57 5 0
9 6 8 13 -2 8 6 11 22 9 47 -7 54 -16 52 -76 -1 -44 2 -56 14 -56 8 0 12 5 9
10 -3 6 -2 10 3 10 9 0 10 36 0 45 -10 10 21 63 41 68 22 5 55 -12 60 -33 8
-36 8 -46 -3 -59 -9 -12 -8 -13 3 -6 11 6 13 3 9 -13 -4 -16 -2 -22 9 -22 11
0 14 8 11 30 -3 17 0 30 5 30 5 0 4 7 -3 15 -7 9 -8 15 -2 15 5 0 8 9 5 20 -3
12 -8 18 -11 15 -3 -2 -12 5 -20 16 -10 14 -22 19 -38 16 -13 -2 -25 1 -28 7
-3 7 -5 7 -5 -1z"/>
<path d="M15016 9933 c-3 -3 -18 -7 -33 -8 -16 -1 -27 -7 -25 -13 1 -7 -4 -12
-10 -12 -10 0 -9 -3 1 -9 8 -5 9 -11 3 -15 -7 -4 -7 -17 -2 -36 6 -21 5 -30
-3 -30 -7 0 -6 -4 3 -10 8 -5 10 -10 5 -10 -6 0 -10 -16 -9 -36 3 -55 22 -62
28 -10 3 26 16 49 16 28 0 -6 7 -9 17 -5 11 4 14 3 9 -5 -4 -7 8 -5 31 4 39
17 55 34 60 69 4 24 -16 75 -29 75 -5 0 -6 6 -2 13 4 6 4 9 0 5 -5 -4 -18 -3
-31 2 -13 5 -26 6 -29 3z m24 -34 c0 -5 7 -6 15 -3 10 4 15 0 15 -13 0 -11 3
-23 7 -27 11 -10 12 -37 2 -30 -5 3 -9 -2 -9 -10 0 -9 -7 -16 -15 -16 -8 0
-15 -5 -15 -10 0 -7 -6 -7 -20 0 -11 6 -20 7 -20 3 0 -4 -8 7 -16 24 -13 26
-14 36 -4 48 6 8 9 18 6 24 -4 5 2 11 11 13 29 6 43 5 43 -3z"/>
<path d="M15771 9931 c-1 -7 -7 -11 -14 -8 -6 2 -18 -2 -25 -9 -7 -8 -9 -14
-5 -14 4 0 2 -4 -4 -8 -24 -15 -22 -70 2 -98 18 -21 31 -26 64 -26 22 0 45 4
51 7 20 12 1 21 -42 19 -44 -2 -60 9 -51 32 4 10 10 11 24 3 14 -7 19 -6 19 2
0 8 4 8 15 -1 12 -10 15 -10 15 1 0 11 2 11 10 -1 7 -11 10 -11 10 -2 0 7 5
10 10 7 17 -11 32 5 19 21 -9 11 -9 14 1 14 6 0 1 13 -12 29 -13 15 -25 27
-27 25 -2 -2 -11 1 -18 8 -11 9 -16 9 -23 -1 -6 -11 -9 -11 -13 0 -5 12 -6 12
-6 0z m53 -33 c-3 -4 -1 -8 4 -8 20 0 20 -28 1 -33 -12 -3 -17 -1 -12 5 4 7 1
8 -6 3 -7 -4 -28 -8 -46 -10 -31 -2 -32 0 -23 21 10 20 27 27 75 30 7 0 10 -3
7 -8z"/>
<path d="M16887 9929 c-9 -6 -17 -7 -17 -4 0 4 -7 0 -15 -9 -40 -40 -38 -117
3 -136 36 -16 72 -22 72 -12 0 5 6 9 13 9 8 0 14 -6 14 -13 0 -7 -4 -11 -8 -9
-3 3 -9 -5 -13 -17 -4 -17 -8 -20 -17 -11 -6 6 -18 9 -27 6 -9 -4 -13 -2 -9 4
4 6 -4 8 -21 5 -15 -3 -21 -7 -14 -10 6 -2 10 -8 6 -13 -5 -9 5 -11 46 -11 49
0 59 3 65 22 4 11 9 18 13 16 11 -7 8 98 -3 107 -7 5 -6 9 1 15 13 8 14 42 2
42 -5 0 -6 5 -3 10 9 14 -8 12 -24 -2 -11 -11 -12 -10 -6 2 5 8 5 12 0 8 -4
-4 -15 -3 -24 2 -10 5 -24 4 -34 -1z m-3 -31 c-5 -7 -3 -8 7 -2 20 12 32 11
48 -4 16 -15 23 -72 9 -72 -4 0 -7 -5 -5 -11 1 -6 -11 -13 -26 -16 -50 -7 -80
48 -50 93 15 24 31 35 17 12z"/>
<path d="M17229 9923 c-6 -7 -15 -11 -19 -8 -13 8 -19 -32 -6 -46 8 -9 7 -10
-4 -5 -8 4 -6 1 4 -8 10 -8 23 -13 27 -10 5 3 9 1 9 -3 0 -5 15 -9 33 -9 25 1
32 -3 32 -18 0 -13 -10 -22 -28 -27 -22 -6 -33 -2 -52 17 -14 14 -26 22 -26
19 -9 -38 11 -57 64 -60 33 -2 47 2 64 22 19 20 21 27 10 43 -6 11 -16 20 -21
20 -5 0 -2 8 7 18 8 9 15 22 15 27 -2 28 -90 51 -109 28z m56 -13 c-3 -5 1
-10 9 -10 9 0 16 -5 16 -11 0 -5 6 -7 13 -3 7 5 7 1 -2 -10 -13 -15 -44 -18
-98 -7 -2 1 -2 7 0 13 1 7 16 18 32 24 17 6 31 12 33 13 2 0 0 -3 -3 -9z"/>
<path d="M17780 9931 c-53 -12 -65 -26 -65 -79 0 -33 6 -55 18 -67 19 -18 87
-30 87 -15 0 5 6 7 14 4 8 -3 15 3 18 14 5 19 -13 25 -28 9 -14 -14 -60 -7
-75 11 -11 13 -13 25 -8 41 6 15 5 20 -2 15 -6 -3 -5 3 2 14 13 21 38 32 72
32 10 0 15 -4 12 -10 -3 -5 1 -10 9 -10 8 0 17 4 21 10 9 14 -47 37 -75 31z"/>
<path d="M18018 9935 c-2 -2 -15 -5 -29 -7 -26 -4 -71 -38 -50 -38 6 0 10 -3
10 -7 -5 -28 2 -42 18 -36 10 4 14 2 10 -4 -4 -6 5 -9 24 -7 16 2 28 0 25 -5
-3 -5 2 -8 11 -7 9 0 18 -5 21 -13 3 -8 0 -11 -7 -7 -6 4 -11 2 -11 -3 0 -6
-15 -11 -34 -11 -27 0 -36 5 -42 22 -5 18 -8 19 -15 5 -20 -35 2 -51 71 -49
46 0 50 2 50 18 0 8 5 12 11 9 16 -11 6 27 -13 49 -9 10 -21 15 -27 11 -6 -3
-11 -1 -11 5 0 6 -5 8 -10 5 -18 -11 -48 5 -45 23 1 9 8 16 15 14 7 -1 8 3 4
10 -5 8 -1 7 11 -2 10 -8 20 -14 22 -12 8 6 23 1 37 -14 15 -14 16 -14 13 3
-1 10 -6 23 -10 29 -7 11 -43 25 -49 19z"/>
<path d="M13135 9910 c2 -11 -1 -22 -7 -26 -7 -4 -5 -10 3 -16 11 -8 12 -11 1
-15 -10 -4 -9 -9 5 -20 10 -8 12 -12 6 -8 -18 9 -16 -10 2 -28 8 -8 11 -17 8
-21 -4 -3 2 -6 13 -7 10 0 29 -2 42 -5 12 -2 22 1 22 7 0 5 5 7 11 3 6 -3 15
0 20 7 7 11 9 10 9 -3 0 -10 5 -18 10 -18 6 0 10 35 10 86 0 63 -3 85 -12 82
-8 -3 -13 -25 -13 -56 0 -29 -5 -52 -10 -53 -6 0 -14 -7 -18 -15 -5 -8 -20
-13 -37 -12 -23 2 -29 8 -34 31 -3 16 -3 33 0 38 3 5 0 9 -5 9 -6 0 -11 5 -11
11 0 5 4 8 9 5 12 -8 8 27 -4 36 -17 13 -24 9 -20 -12z"/>
<path d="M13395 9920 c-2 -4 -4 -39 -4 -78 0 -53 4 -72 14 -72 9 0 12 14 10
50 -1 28 2 50 7 50 5 0 7 3 5 8 -5 7 17 33 28 32 21 -1 25 1 21 9 -7 10 -75
11 -81 1z"/>
<path d="M13568 9916 c-10 -7 -15 -16 -11 -19 3 -4 1 -7 -6 -7 -8 0 -11 -8 -8
-20 3 -11 1 -22 -3 -25 -11 -7 13 -52 36 -69 10 -8 24 -12 31 -9 7 3 13 -1 13
-8 0 -10 3 -11 8 -3 4 7 16 13 26 15 34 7 14 24 -26 23 -21 -1 -38 3 -38 9 0
5 -7 4 -15 -3 -20 -17 -19 -8 3 18 13 15 22 18 35 11 12 -7 17 -6 17 2 0 8 4
8 15 -1 12 -10 15 -10 15 1 0 10 3 10 11 2 18 -18 41 7 25 26 -9 12 -8 13 2 7
11 -7 12 -4 3 11 -6 11 -7 23 -4 27 6 5 -12 10 -29 7 -5 0 -8 4 -8 9 0 15 -72
12 -92 -4z m96 -35 c11 -19 8 -25 -16 -26 -10 -1 -18 3 -18 9 0 8 -3 8 -8 0
-9 -13 -52 -13 -52 1 1 42 71 54 94 16z"/>
<path d="M15312 9890 c-1 -28 3 -38 11 -34 8 5 8 3 0 -7 -7 -7 -13 -28 -13
-47 0 -26 4 -33 16 -30 18 3 29 58 12 58 -6 0 -6 6 2 15 10 12 10 18 1 29 -8
9 -8 16 -2 20 13 9 2 36 -14 36 -8 0 -13 -15 -13 -40z"/>
<path d="M15597 9923 c-4 -3 -2 -12 4 -20 6 -7 8 -13 3 -13 -5 0 -9 -29 -9
-63 0 -44 4 -64 12 -64 7 0 10 4 7 8 -2 4 0 10 6 14 5 3 10 11 10 16 0 6 -5 7
-11 3 -7 -4 -7 1 1 15 9 18 9 26 -2 39 -7 9 -8 13 -3 10 9 -6 12 20 6 55 -1 9
-15 9 -24 0z"/>
<path d="M16603 9914 c-7 -6 -9 -15 -6 -18 4 -3 0 -6 -7 -6 -7 0 -10 -3 -7 -7
4 -3 2 -12 -4 -20 -6 -7 -7 -13 -2 -13 5 0 9 -9 10 -20 1 -13 -3 -18 -10 -14
-7 3 -4 -1 5 -9 10 -8 16 -17 13 -20 -3 -4 -2 -5 2 -2 3 3 11 0 18 -5 26 -21
124 -13 110 10 -3 5 0 10 6 12 14 5 20 66 8 74 -5 3 -9 14 -9 24 0 14 -5 18
-17 13 -11 -4 -14 -3 -9 6 11 16 -86 12 -101 -5z m96 -26 c11 -11 18 -25 15
-30 -3 -4 0 -8 7 -8 8 0 9 -3 0 -13 -6 -8 -7 -18 -3 -22 4 -5 2 -5 -4 -2 -7 4
-14 0 -18 -8 -12 -33 -98 -4 -90 30 1 6 5 22 8 37 4 17 14 28 29 31 12 2 25 5
29 6 4 0 16 -9 27 -21z"/>
<path d="M17609 9923 c-1 -5 -1 -11 0 -15 0 -5 -4 -8 -10 -8 -8 0 -8 -5 1 -15
10 -12 10 -15 -1 -15 -12 0 -12 -2 0 -9 9 -6 10 -11 2 -15 -8 -5 -8 -13 -1
-27 8 -14 7 -19 -2 -19 -10 0 -10 -2 0 -9 8 -4 13 -11 13 -15 -1 -3 2 -6 7 -6
4 0 7 4 7 9 0 5 2 12 5 14 9 9 -1 137 -11 137 -5 0 -10 -3 -10 -7z"/>
</g>
</svg>
